<svg width="2650" height="2569" viewBox="0 0 2650 2569" fill="none" xmlns="http://www.w3.org/2000/svg">
<mask id="mask0" style="mask-type:alpha" maskUnits="userSpaceOnUse" x="0" y="0" width="2650" height="2569">
<path d="M598.855 0L1382.33 643.573L2236.66 97.4924L1866.54 1041.32L2650 1684.89L1637.78 1624.64L1267.69 2568.47L1012.22 1587.4L0 1527.15L854.329 981.069L598.855 0Z" fill="#FF866C"/>
</mask>
<g mask="url(#mask0)">
<path d="M2547.96 2391.97C2547.96 2391.97 2504.25 2424.75 2491.7 2478.18C2479.15 2532.01 2432.61 2566.82 2432.61 2566.82" stroke="#42FF00" stroke-width="15" stroke-miterlimit="10"/>
<path d="M2547.96 2246.27C2547.96 2246.27 2398.21 2292.41 2358.54 2408.56C2320.5 2521.49 2166.7 2567.22 2166.7 2567.22" stroke="#42FF00" stroke-width="15" stroke-miterlimit="10"/>
<path d="M2547.96 2100.56C2547.96 2100.56 2292.16 2160.06 2225.79 2338.55C2161.44 2510.56 1900.79 2567.22 1900.79 2567.22" stroke="#42FF00" stroke-width="15" stroke-miterlimit="10"/>
<path d="M2547.96 1954.45C2547.96 1954.45 2186.53 2027.71 2092.63 2268.53C2003.18 2499.63 1634.88 2567.22 1634.88 2567.22" stroke="#42FF00" stroke-width="15" stroke-miterlimit="10"/>
<path d="M2547.96 1808.75C2547.96 1808.75 2080.49 1895.36 1959.88 2198.51C1844.53 2489.11 1369.37 2567.22 1369.37 2567.22" stroke="#42FF00" stroke-width="15" stroke-miterlimit="10"/>
<path d="M2547.96 1662.64C2547.96 1662.64 1974.45 1762.61 1826.72 2128.49C1685.47 2478.18 1103.46 2567.22 1103.46 2567.22" stroke="#42FF00" stroke-width="15" stroke-miterlimit="10"/>
<path d="M2547.96 1516.93C2547.96 1516.93 1868.81 1630.66 1693.97 2058.47C1527.22 2467.25 837.951 2567.22 837.951 2567.22" stroke="#42FF00" stroke-width="15" stroke-miterlimit="10"/>
<path d="M2547.96 1371.23C2547.96 1371.23 1762.77 1498.32 1560.81 1988.85C1368.16 2456.73 571.636 2567.22 571.636 2567.22" stroke="#42FF00" stroke-width="15" stroke-miterlimit="10"/>
<path d="M2547.96 1225.12C2547.96 1225.12 1656.73 1365.56 1427.65 1918.43C1209.5 2445.8 305.726 2567.22 305.726 2567.22" stroke="#42FF00" stroke-width="15" stroke-miterlimit="10"/>
<path d="M2547.96 1079.41C2547.96 1079.41 1551.1 1233.21 1294.9 1848.82C1050.84 2434.87 39.8147 2567.22 39.8147 2567.22" stroke="#42FF00" stroke-width="15" stroke-miterlimit="10"/>
<path d="M2547.96 933.711C2547.96 933.711 1445.05 1101.27 1161.74 1778.8C892.187 2424.35 -225.692 2567.22 -225.692 2567.22" stroke="#42FF00" stroke-width="15" stroke-miterlimit="10"/>
<path d="M2547.96 787.601C2547.96 787.601 1339.01 968.518 1028.99 1708.78C733.531 2413.42 -491.603 2567.22 -491.603 2567.22" stroke="#42FF00" stroke-width="15" stroke-miterlimit="10"/>
<path d="M2547.96 641.896C2547.96 641.896 1233.38 836.169 895.829 1638.76C574.874 2402.9 -757.513 2567.22 -757.513 2567.22" stroke="#42FF00" stroke-width="15" stroke-miterlimit="10"/>
<path d="M2547.96 496.192C2547.96 496.192 1127.34 703.821 763.076 1568.74C416.218 2391.97 -1023.42 2567.22 -1023.42 2567.22" stroke="#42FF00" stroke-width="15" stroke-miterlimit="10"/>
<path d="M2547.96 350.083C2547.96 350.083 1021.3 571.473 629.917 1498.72C257.561 2381.04 -1288.93 2567.22 -1288.93 2567.22" stroke="#42FF00" stroke-width="15" stroke-miterlimit="10"/>
<path d="M2547.96 204.377C2547.96 204.377 915.661 439.124 497.165 1428.7C98.9056 2370.52 -1554.84 2567.22 -1554.84 2567.22" stroke="#42FF00" stroke-width="15" stroke-miterlimit="10"/>
<path d="M2547.96 58.673C2547.96 58.673 809.621 306.776 364.007 1359.09C-59.7504 2359.59 -1820.75 2567.22 -1820.75 2567.22" stroke="#42FF00" stroke-width="15" stroke-miterlimit="10"/>
<path d="M2547.96 -87.4366C2547.96 -87.4366 703.58 174.427 230.849 1288.66C-218.407 2348.66 -2086.66 2567.22 -2086.66 2567.22" stroke="#42FF00" stroke-width="15" stroke-miterlimit="10"/>
<path d="M2547.96 -233.141C2547.96 -233.141 597.944 42.0787 98.0963 1219.05C-377.063 2338.14 -2352.57 2567.22 -2352.57 2567.22" stroke="#42FF00" stroke-width="15" stroke-miterlimit="10"/>
<path d="M2547.96 -378.845C2547.96 -378.845 491.903 -90.2694 -35.0617 1149.03C-535.719 2327.21 -2618.08 2567.22 -2618.08 2567.22" stroke="#42FF00" stroke-width="15" stroke-miterlimit="10"/>
<path d="M2547.96 -524.955C2547.96 -524.955 385.864 -223.023 -167.813 1079.01C-694.778 2316.29 -2883.99 2567.22 -2883.99 2567.22" stroke="#42FF00" stroke-width="15" stroke-miterlimit="10"/>
<path d="M2547.96 -670.66C2547.96 -670.66 280.227 -354.966 -300.973 1008.99C-853.436 2305.76 -3149.9 2567.22 -3149.9 2567.22" stroke="#42FF00" stroke-width="15" stroke-miterlimit="10"/>
</g>
</svg>
